<svg width="40" height="40" viewBox="0 0 40 40" fill="none" xmlns="http://www.w3.org/2000/svg">
<rect width="40" height="40" rx="20" fill="#645CFF"/>
<g clip-path="url(#clip0_4_19)">
<path d="M26.5 13H22.5C21.6719 13 21 13.6719 21 14.5V18.5C21 19.3281 21.6719 20 22.5 20H25V22C25 23.1031 24.1031 24 23 24H22.75C22.3344 24 22 24.3344 22 24.75V26.25C22 26.6656 22.3344 27 22.75 27H23C25.7625 27 28 24.7625 28 22V14.5C28 13.6719 27.3281 13 26.5 13ZM17.5 13H13.5C12.6719 13 12 13.6719 12 14.5V18.5C12 19.3281 12.6719 20 13.5 20H16V22C16 23.1031 15.1031 24 14 24H13.75C13.3344 24 13 24.3344 13 24.75V26.25C13 26.6656 13.3344 27 13.75 27H14C16.7625 27 19 24.7625 19 22V14.5C19 13.6719 18.3281 13 17.5 13Z" fill="white"/>
</g>
<defs>
<clipPath id="clip0_4_19">
<rect width="16" height="16" fill="white" transform="translate(12 12)"/>
</clipPath>
</defs>
</svg>
