<svg width="32" height="32" viewBox="0 0 32 32" fill="none" xmlns="http://www.w3.org/2000/svg">
<rect width="32" height="32" rx="16" fill="#164E63"/>
<g clip-path="url(#clip0_1_16)">
<path d="M11.1163 15.17H20.8837C20.9612 15.17 21 15.2051 21 15.2752V16.0647C21 16.1349 20.9612 16.17 20.8837 16.17H11.1163C11.0388 16.17 11 16.1349 11 16.0647V15.2752C11 15.2051 11.0388 15.17 11.1163 15.17Z" fill="white"/>
<path d="M16.5 10.7863L16.5 20.5537C16.5 20.6312 16.4649 20.67 16.3947 20.67L15.6053 20.67C15.5351 20.67 15.5 20.6312 15.5 20.5537L15.5 10.7863C15.5 10.7087 15.5351 10.67 15.6053 10.67L16.3947 10.67C16.4649 10.67 16.5 10.7087 16.5 10.7863Z" fill="white"/>
</g>
<defs>
<clipPath id="clip0_1_16">
<rect width="14" height="14" fill="white" transform="translate(9 9.16998)"/>
</clipPath>
</defs>
</svg>
